<svg width="34" height="34" viewBox="0 0 34 34" fill="none" xmlns="http://www.w3.org/2000/svg">
<path d="M9.45878 25.2967C8.03619 25.9423 6.5184 26.3531 4.9644 26.5133C4.8618 26.5239 4.7583 26.5045 4.66656 26.4573C4.57482 26.4101 4.49879 26.3373 4.44776 26.2476C3.29628 24.2183 2.91776 21.6935 3.38526 18.923C3.98159 15.3477 5.92065 11.7684 8.84651 8.84256C11.7724 5.9167 15.3543 3.97763 18.927 3.38131C21.9538 2.87795 24.6871 3.38131 26.8014 4.78912C26.888 4.84594 26.956 4.92681 26.9972 5.02177C27.0384 5.11674 27.0509 5.22167 27.0333 5.32367C27.0157 5.42567 26.9686 5.5203 26.8979 5.59593C26.8272 5.67155 26.736 5.72488 26.6354 5.74935C25.6401 5.9866 24.6697 6.31837 23.7374 6.74013C20.8461 8.05498 17.1499 10.8653 15.9653 16.794C15.1538 20.8156 12.9664 23.6764 9.45878 25.2967ZM29.552 7.75349C29.501 7.66406 29.4252 7.59135 29.3338 7.54419C29.2423 7.49704 29.1391 7.47747 29.0367 7.48787C27.482 7.64694 25.9637 8.05782 24.541 8.70443C21.0334 10.3247 18.846 13.1855 18.0411 17.2044C16.8551 23.1332 13.1603 25.9435 10.2689 27.2583C9.33669 27.6801 8.36629 28.0119 7.37097 28.2491C7.26813 28.2723 7.17451 28.3256 7.10205 28.4022C7.02958 28.4787 6.98153 28.5751 6.96401 28.6791C6.94649 28.783 6.9603 28.8899 7.00368 28.9859C7.04706 29.082 7.11805 29.163 7.20761 29.2186C8.78409 30.2705 10.7032 30.8124 12.8322 30.8124C13.5852 30.8102 14.3368 30.7462 15.0794 30.6211C18.6534 30.0248 22.234 28.0858 25.1599 25.1599C28.0857 22.234 30.0248 18.6521 30.6211 15.0794C31.078 12.309 30.7035 9.78287 29.552 7.75349Z" fill="#B1B0B0"/>
</svg>
