<svg width="28" height="28" viewBox="0 0 28 28" fill="none" xmlns="http://www.w3.org/2000/svg">
<path d="M6.26884 22.1058C4.84625 22.7514 3.32846 23.1622 1.77446 23.3223C1.67186 23.333 1.56836 23.3136 1.47662 23.2664C1.38487 23.2192 1.30885 23.1464 1.25782 23.0567C0.106337 21.0273 -0.272179 18.5026 0.195321 15.7321C0.791649 12.1568 2.73071 8.5775 5.65657 5.65164C8.58243 2.72578 12.1644 0.786717 15.737 0.190389C18.7638 -0.312971 21.4971 0.190389 23.6115 1.5982C23.698 1.65503 23.7661 1.73589 23.8072 1.83086C23.8484 1.92582 23.861 2.03075 23.8433 2.13276C23.8257 2.23476 23.7787 2.32938 23.708 2.40501C23.6373 2.48063 23.5461 2.53396 23.4455 2.55844C22.4501 2.79568 21.4798 3.12745 20.5475 3.54922C17.6562 4.86406 13.96 7.67437 12.7753 13.6031C11.9638 17.6247 9.77641 20.4855 6.26884 22.1058ZM26.362 4.56258C26.3111 4.47314 26.2353 4.40043 26.1438 4.35328C26.0523 4.30612 25.9491 4.28655 25.8467 4.29695C24.2921 4.45602 22.7737 4.8669 21.351 5.51351C17.8434 7.13383 15.656 9.99461 14.8512 14.0135C13.6652 19.9423 9.97032 22.7526 7.07899 24.0674C6.14675 24.4892 5.17635 24.821 4.18102 25.0582C4.07819 25.0814 3.98457 25.1347 3.9121 25.2112C3.83963 25.2878 3.79158 25.3842 3.77407 25.4882C3.75655 25.5921 3.77036 25.6989 3.81374 25.795C3.85712 25.8911 3.92811 25.9721 4.01766 26.0277C5.59415 27.0796 7.51329 27.6215 9.64227 27.6215C10.3953 27.6193 11.1469 27.5553 11.8895 27.4302C15.4634 26.8339 19.0441 24.8948 21.9699 21.969C24.8958 19.0431 26.8349 15.4612 27.4312 11.8885C27.8881 9.11805 27.5135 6.59195 26.362 4.56258Z" fill="#B1B0B0"/>
<g clip-path="url(#clip0_81_6)">
<path d="M6.26884 22.1058C4.84625 22.7514 3.32846 23.1622 1.77446 23.3223C1.67186 23.333 1.56836 23.3136 1.47662 23.2664C1.38487 23.2192 1.30885 23.1464 1.25782 23.0567C0.106337 21.0273 -0.272179 18.5026 0.195321 15.7321C0.791649 12.1568 2.73071 8.5775 5.65657 5.65164C8.58243 2.72578 12.1644 0.786717 15.737 0.190389C18.7638 -0.312971 21.4971 0.190389 23.6115 1.5982C23.698 1.65503 23.7661 1.73589 23.8072 1.83086C23.8484 1.92582 23.861 2.03075 23.8434 2.13276C23.8257 2.23476 23.7787 2.32938 23.708 2.40501C23.6373 2.48063 23.5461 2.53396 23.4455 2.55844C22.4502 2.79568 21.4798 3.12745 20.5475 3.54922C17.6562 4.86406 13.96 7.67437 12.7753 13.6031C11.9638 17.6247 9.77642 20.4855 6.26884 22.1058ZM26.362 4.56258C26.3111 4.47314 26.2353 4.40043 26.1438 4.35328C26.0523 4.30612 25.9491 4.28655 25.8467 4.29695C24.2921 4.45602 22.7737 4.8669 21.351 5.51351C17.8434 7.13383 15.656 9.99461 14.8512 14.0135C13.6652 19.9423 9.97032 22.7526 7.07899 24.0674C6.14675 24.4892 5.17635 24.821 4.18102 25.0582C4.07819 25.0814 3.98457 25.1347 3.9121 25.2112C3.83963 25.2878 3.79158 25.3842 3.77407 25.4882C3.75655 25.5921 3.77036 25.6989 3.81374 25.795C3.85712 25.8911 3.92811 25.9721 4.01767 26.0277C5.59415 27.0796 7.51329 27.6215 9.64228 27.6215C10.3953 27.6193 11.1469 27.5553 11.8895 27.4302C15.4634 26.8339 19.0441 24.8948 21.9699 21.969C24.8958 19.0431 26.8349 15.4612 27.4312 11.8885C27.8881 9.11805 27.5135 6.59195 26.362 4.56258Z" fill="#8C4416"/>
</g>
<defs>
<clipPath id="clip0_81_6">
<rect width="15" height="28" fill="white"/>
</clipPath>
</defs>
</svg>
